<?xml version="1.0" standalone="no"?>
<!DOCTYPE svg PUBLIC "-//W3C//DTD SVG 20010904//EN"
 "http://www.w3.org/TR/2001/REC-SVG-20010904/DTD/svg10.dtd">
<svg version="1.0" xmlns="http://www.w3.org/2000/svg"
 width="250.000000pt" height="250.000000pt" viewBox="0 0 250.000000 250.000000"
 preserveAspectRatio="xMidYMid meet">
<metadata>
Created by potrace 1.14, written by Peter Selinger 2001-2017
</metadata>
<g transform="translate(0.000000,250.000000) scale(0.100000,-0.100000)"
fill="#000000" stroke="none">
<path d="M1063 2495 c1 0 11 -7 21 -15 11 -8 17 -10 14 -5 -4 6 2 12 13 12 10
1 19 -3 19 -8 0 -6 -4 -8 -9 -5 -10 7 -33 -18 -25 -27 3 -3 -4 -3 -17 0 -22 6
-22 7 -3 14 18 7 18 8 1 8 -11 1 -21 -8 -24 -20 -4 -15 -8 -17 -14 -8 -4 7 -3
19 2 25 7 8 6 15 -2 20 -7 4 -9 3 -5 -4 3 -6 -3 -17 -14 -25 -11 -7 -17 -17
-13 -21 4 -4 0 -4 -10 0 -9 3 -15 9 -13 13 3 4 -5 8 -17 8 -17 2 -19 0 -7 -7
13 -9 13 -10 0 -10 -8 -1 -30 -3 -47 -4 -22 -3 -31 0 -26 8 4 7 1 7 -7 -1 -11
-10 -11 -15 0 -28 7 -9 9 -15 4 -14 -5 1 -11 0 -14 -1 -25 -10 -65 -9 -72 2
-7 9 -8 6 -5 -10 4 -18 3 -21 -7 -12 -23 19 -82 -1 -73 -24 3 -7 -1 -13 -9
-13 -7 0 -11 4 -9 8 4 6 -3 6 -34 0 -2 -1 3 -8 10 -18 13 -15 12 -15 -11 -3
-24 13 -24 12 -10 -5 14 -17 14 -18 -10 -5 -23 12 -24 12 -11 -4 12 -14 12
-16 -4 -9 -15 5 -17 3 -12 -11 4 -9 3 -15 -2 -11 -5 3 -12 -1 -15 -7 -3 -7 -3
-2 0 12 4 18 3 21 -4 11 -6 -8 -15 -10 -23 -5 -11 6 -12 5 -2 -8 15 -18 5 -32
-13 -17 -8 7 -14 6 -20 -2 -5 -8 -3 -9 6 -4 9 6 11 4 6 -4 -5 -7 -15 -10 -23
-7 -8 3 -11 1 -8 -4 3 -6 1 -10 -5 -10 -6 0 -8 -5 -4 -12 5 -8 0 -7 -11 2 -17
14 -18 14 -6 -7 14 -27 9 -29 -14 -7 -15 16 -16 16 -13 -2 2 -10 7 -22 11 -25
5 -3 2 -9 -7 -12 -8 -3 -18 -1 -22 5 -4 7 -3 8 4 4 8 -5 10 -2 6 8 -3 9 -10
16 -14 16 -10 0 -5 -33 6 -52 4 -6 3 -8 -4 -4 -6 3 -15 -2 -21 -11 -6 -10 -11
-13 -11 -7 0 6 -7 11 -15 11 -12 0 -12 -3 -2 -15 10 -13 9 -14 -13 -2 -25 13
-25 13 -7 -8 14 -15 15 -22 6 -28 -7 -4 -10 -3 -6 3 4 6 -3 13 -15 16 -14 4
-18 3 -10 -5 7 -7 4 -16 -9 -29 -11 -11 -17 -25 -13 -30 4 -7 -1 -7 -15 0 -12
7 -21 8 -20 4 4 -23 -2 -53 -11 -53 -5 0 -7 8 -4 18 5 14 4 14 -4 2 -8 -10 -7
-19 1 -29 9 -11 9 -13 0 -8 -7 4 -14 -1 -18 -13 -5 -16 -12 -19 -28 -14 -22 6
-22 6 -2 -11 18 -15 18 -16 2 -11 -15 5 -17 2 -11 -16 6 -21 6 -22 -12 -8 -18
14 -18 14 -2 -11 15 -24 15 -25 -5 -25 -15 1 -22 -5 -21 -16 1 -10 -5 -18 -13
-18 -8 0 -11 -5 -7 -12 5 -8 2 -9 -9 -5 -14 5 -15 3 -5 -13 9 -14 15 -16 21
-7 6 8 7 8 4 -3 -2 -8 -10 -14 -17 -12 -7 2 -10 -3 -7 -11 3 -7 -1 -14 -8 -14
-10 0 -11 5 -4 18 8 15 6 17 -6 13 -9 -4 -13 -9 -11 -12 3 -3 0 -12 -7 -20 -9
-13 -9 -14 0 -8 8 4 13 2 13 -4 0 -6 5 -8 13 -4 8 5 8 2 -2 -9 -15 -18 -26
-23 -16 -7 10 16 -1 12 -15 -6 -8 -8 -9 -14 -4 -13 22 4 22 -3 -1 -27 -14 -15
-22 -30 -20 -35 3 -4 -3 -13 -12 -19 -16 -10 -16 -11 -1 -6 10 3 20 1 23 -4 4
-6 -1 -10 -11 -10 -14 0 -14 -3 -4 -15 11 -13 10 -14 -3 -10 -8 4 -18 1 -23
-6 -4 -7 -3 -10 3 -6 6 4 11 -4 11 -18 0 -14 -4 -23 -8 -20 -4 3 -14 -3 -21
-13 -12 -15 -12 -16 1 -5 9 7 21 8 29 4 9 -6 7 -10 -8 -14 -14 -3 -19 -10 -15
-20 3 -9 13 -13 22 -10 14 4 14 3 3 -5 -13 -9 -13 -13 -1 -29 12 -15 11 -15
-9 2 -14 11 -21 14 -16 6 4 -8 9 -24 11 -37 2 -20 0 -22 -16 -11 -10 6 -16 15
-13 20 3 5 9 3 14 -4 6 -10 9 -10 9 -2 0 18 -18 25 -27 11 -11 -18 -14 -130
-3 -123 5 3 12 1 15 -5 4 -6 1 -9 -6 -8 -6 2 -13 -10 -16 -25 -2 -17 0 -26 6
-23 5 4 13 2 16 -4 4 -6 1 -9 -7 -8 -10 2 -13 -16 -13 -74 -1 -42 1 -75 5 -73
3 2 17 -6 30 -17 18 -14 20 -18 7 -14 -12 4 -17 2 -15 -6 3 -7 10 -14 16 -14
23 -3 24 -4 13 -17 -8 -10 -7 -17 2 -27 6 -7 7 -10 2 -7 -6 3 -17 2 -25 -4
-12 -7 -9 -9 10 -9 15 0 20 -3 13 -8 -12 -7 -13 -62 -1 -62 4 0 17 -14 29 -32
13 -17 18 -28 11 -24 -18 11 -14 -5 6 -21 14 -12 14 -14 1 -10 -9 3 -16 -1
-16 -9 0 -7 4 -11 9 -8 4 3 8 0 8 -6 0 -6 4 -9 9 -5 5 3 13 1 16 -5 4 -6 1 -9
-6 -8 -6 2 -14 -3 -17 -11 -3 -8 0 -11 7 -7 7 5 11 -1 11 -14 0 -15 5 -20 15
-17 8 4 17 1 21 -5 4 -7 3 -8 -4 -4 -7 4 -12 0 -13 -11 0 -10 -3 -13 -6 -5 -2
6 -9 12 -15 12 -6 0 -5 -6 2 -15 10 -12 16 -13 28 -3 11 9 14 9 9 1 -4 -6 -2
-15 3 -18 8 -5 5 -14 -7 -28 -10 -12 -12 -17 -4 -12 10 6 13 4 9 -6 -4 -10 2
-15 20 -17 14 -1 31 -7 37 -14 7 -8 6 -9 -2 -4 -8 4 -13 1 -13 -8 0 -9 5 -17
10 -17 6 -1 14 -2 19 -3 5 0 13 -4 16 -8 4 -4 -5 -5 -21 -3 -16 2 -23 2 -16
-1 6 -3 10 -10 7 -14 -3 -5 6 -7 20 -4 23 4 24 3 13 -10 -7 -7 -17 -11 -22 -8
-5 3 -6 0 -3 -6 4 -5 17 -8 28 -5 20 5 20 4 9 -18 -7 -13 -9 -21 -5 -17 11 11
36 -12 28 -25 -4 -6 -1 -7 6 -3 9 6 8 13 -5 27 -13 15 -14 18 -3 14 8 -3 20
-15 27 -26 8 -12 9 -18 3 -14 -6 3 -11 1 -11 -4 0 -12 26 -15 33 -3 2 4 2 1 1
-6 -2 -7 3 -15 11 -18 8 -4 12 -10 9 -16 -3 -5 -12 -1 -20 9 -7 10 -14 13 -14
7 0 -17 22 -33 38 -27 10 4 13 2 8 -5 -4 -7 -1 -12 9 -12 10 0 13 5 9 13 -4 7
-3 9 2 4 9 -9 10 -13 13 -44 1 -14 3 -15 10 -5 6 10 10 8 14 -8 4 -15 11 -21
21 -17 10 4 13 1 10 -7 -3 -8 0 -17 7 -22 8 -4 10 -3 5 4 -5 8 -2 10 8 6 9 -3
13 -11 9 -17 -4 -6 0 -8 10 -4 21 8 39 -14 27 -33 -16 -25 -11 -36 6 -12 8 12
21 22 27 21 9 0 9 -2 0 -6 -24 -9 -13 -20 17 -17 16 2 33 -2 37 -9 7 -12 9
-17 12 -36 0 -5 8 -11 15 -14 11 -4 13 -1 10 11 -5 13 -4 14 4 3 5 -7 14 -11
19 -8 5 3 10 0 10 -8 0 -8 -5 -11 -10 -8 -6 3 -7 2 -4 -4 4 -6 18 -9 32 -8 17
2 25 -2 25 -12 0 -12 -3 -13 -14 -4 -11 9 -16 9 -22 0 -4 -7 -3 -9 4 -5 5 3
12 0 15 -6 3 -10 9 -8 23 5 18 16 20 16 48 -15 l29 -33 -18 30 c-12 20 -14 26
-4 19 8 -6 24 -10 36 -9 13 1 19 -3 16 -11 -2 -6 1 -15 8 -20 8 -5 10 -3 4 6
-6 9 -4 11 4 6 7 -5 10 -15 6 -24 -3 -9 -3 -13 1 -9 4 4 13 2 21 -4 7 -6 13
-8 13 -5 0 4 10 1 23 -5 19 -11 20 -10 10 3 -10 12 -10 15 2 15 8 0 15 -4 15
-8 0 -4 7 -10 16 -13 8 -3 12 -2 9 3 -3 5 -1 12 5 16 5 3 10 -1 10 -10 0 -9 5
-13 10 -10 6 4 7 12 3 18 -4 7 0 7 10 -1 9 -8 20 -11 26 -8 5 4 15 1 23 -6 15
-14 33 -21 61 -22 9 0 17 -4 17 -8 0 -12 -34 -10 -46 2 -7 7 -11 6 -11 -3 0
-21 223 -18 238 3 9 13 10 13 6 -1 -5 -14 2 -17 37 -16 44 0 52 13 31 47 -8
13 -6 13 10 0 10 -8 20 -14 22 -12 13 9 32 -1 27 -15 -5 -17 -5 -17 6 0 6 9
16 14 22 11 7 -4 8 -2 4 4 -4 7 -1 12 8 12 26 0 30 1 46 13 13 10 13 10 2 -5
-11 -13 -11 -18 0 -24 7 -4 10 -4 6 1 -5 5 2 15 14 23 16 12 23 12 26 4 2 -7
8 -12 14 -12 6 0 8 6 5 13 -3 7 3 13 14 14 10 1 17 -4 15 -10 -1 -7 -1 -9 1
-5 3 4 4 10 3 14 -1 3 8 14 20 24 22 19 65 16 53 -4 -4 -6 1 -4 11 4 23 18 46
22 46 7 0 -7 4 -6 9 3 6 8 7 18 4 24 -4 5 3 7 14 4 12 -3 20 0 20 8 0 7 -5 10
-10 7 -6 -3 -7 -1 -3 6 6 9 11 9 21 1 10 -8 15 -8 20 0 4 6 13 9 21 6 15 -6
27 7 17 18 -4 3 -17 -1 -30 -9 -13 -9 -23 -12 -23 -8 1 15 91 65 106 59 12 -5
14 -1 8 16 -6 21 -6 21 10 5 10 -9 14 -22 10 -28 -4 -8 -3 -9 5 -5 6 4 9 16 6
26 -3 10 -1 21 5 25 6 3 7 11 4 17 -4 7 -2 8 5 4 8 -6 9 -12 2 -20 -8 -9 -7
-13 4 -13 7 0 13 5 12 11 -1 6 4 10 12 8 12 -3 12 0 1 13 -11 13 -10 14 5 9
14 -6 16 -3 11 13 -4 14 -1 23 9 27 9 3 14 10 10 15 -3 5 0 13 6 17 8 4 9 3 5
-4 -5 -8 0 -11 15 -9 14 2 24 12 26 26 2 16 -1 20 -9 15 -7 -4 -4 2 6 14 20
23 27 27 25 15 -3 -19 2 -23 15 -11 7 7 11 19 9 26 -3 8 0 10 10 6 9 -3 14
-13 10 -22 -4 -14 -3 -15 5 -2 7 9 8 18 1 26 -7 8 -6 15 2 20 8 4 9 3 5 -4 -4
-7 -2 -12 3 -12 6 0 11 5 11 11 0 6 7 8 18 4 12 -4 14 -3 6 5 -12 12 3 60 19
60 5 0 5 -5 1 -12 -5 -7 -3 -8 5 -4 7 5 10 14 7 21 -3 8 3 19 12 27 15 12 16
11 4 -4 -9 -11 -10 -18 -2 -23 6 -4 10 -3 9 2 -1 4 -1 10 1 13 9 25 8 50 -2
44 -7 -4 -8 -3 -4 5 5 8 12 9 20 2 8 -7 17 -6 26 1 13 8 12 9 -2 5 -10 -4 -18
1 -21 15 -5 16 -3 18 6 9 18 -18 31 -13 16 6 -12 14 -12 16 0 8 11 -6 13 -4 8
8 -3 9 -2 19 4 22 5 4 7 11 4 16 -3 5 2 6 11 2 12 -4 15 -3 10 5 -4 7 -3 12 3
12 5 0 11 -5 13 -12 3 -7 7 -5 11 6 4 10 3 15 -3 11 -6 -3 -10 -1 -10 5 0 6
-4 9 -8 6 -5 -3 -9 1 -9 9 0 11 4 12 13 4 8 -7 14 -7 19 1 3 5 1 10 -5 10 -6
0 -8 5 -5 10 4 6 11 7 17 4 7 -4 8 -2 4 5 -4 6 -12 9 -17 6 -5 -4 -9 -1 -9 6
0 7 8 9 21 6 17 -4 19 -3 10 6 -15 15 -14 30 2 21 8 -5 8 -2 -2 9 -7 9 -10 17
-5 17 5 0 4 4 -2 8 -6 4 -4 13 8 25 10 9 18 12 18 6 0 -8 5 -8 15 1 15 12 14
47 -1 72 -5 8 0 7 11 -2 10 -8 16 -10 12 -3 -10 17 -16 73 -7 68 4 -3 10 2 14
10 3 8 0 17 -6 21 -7 5 -8 2 -3 -7 8 -12 6 -12 -8 0 -19 15 -23 26 -5 15 7 -5
9 -2 5 9 -3 9 1 21 11 29 9 7 13 8 9 2 -4 -7 -1 -14 7 -17 8 -3 16 0 19 6 2 7
3 84 3 172 l-1 160 -25 -3 c-19 -2 -22 0 -12 10 17 17 15 33 -3 18 -13 -11
-14 -10 -9 4 3 9 0 24 -7 33 -12 14 -12 16 0 8 11 -6 13 -4 9 7 -4 8 -2 21 2
29 6 9 3 21 -8 33 -9 11 -11 16 -5 12 9 -5 12 1 11 18 -1 15 -6 26 -11 26 -5
0 -6 -8 -2 -17 4 -13 3 -15 -5 -7 -13 13 -2 46 13 37 6 -3 7 -1 3 5 -9 15 -12
15 -29 -3 -13 -13 -16 -13 -21 1 -3 8 -2 13 3 10 15 -10 31 18 19 34 -8 12 -9
12 -4 -2 3 -10 1 -18 -4 -18 -10 0 -25 39 -21 59 1 8 -2 10 -11 6 -10 -6 -11
-5 0 6 17 18 15 29 -5 30 -15 0 -15 2 2 9 11 5 15 9 8 9 -6 1 -15 10 -18 21
-3 11 -11 20 -18 20 -8 0 -8 -3 1 -12 15 -15 15 -28 0 -28 -6 0 -8 3 -5 7 4 3
2 12 -4 20 -6 7 -8 13 -4 13 5 0 0 10 -11 22 -15 19 -16 20 -1 9 20 -15 22 -9
6 20 -6 12 -17 18 -25 15 -8 -3 -13 0 -11 7 1 7 -4 11 -12 9 -12 -3 -12 0 -2
12 11 13 10 18 -3 31 -21 22 -20 31 2 14 9 -7 5 -1 -10 14 -18 18 -33 25 -45
20 -15 -6 -16 -5 -3 9 8 9 20 13 25 10 6 -3 2 4 -8 16 -12 13 -25 18 -35 14
-15 -5 -15 -4 -3 11 8 10 11 20 7 24 -3 3 -6 2 -6 -4 0 -6 -8 -14 -17 -17 -10
-4 -14 -4 -10 0 10 10 -13 35 -26 27 -6 -4 -7 -1 -2 6 5 9 10 10 18 2 6 -6 16
-11 22 -11 5 0 1 7 -9 15 -10 8 -23 12 -28 9 -5 -3 -17 3 -27 15 -10 11 -22
17 -26 13 -5 -4 -5 -1 -1 6 6 11 12 10 27 -4 11 -9 21 -15 24 -12 9 8 -44 40
-55 33 -6 -3 -7 1 -4 9 4 11 0 16 -11 16 -9 0 -13 -4 -10 -10 3 -5 1 -10 -5
-10 -7 0 -9 7 -6 17 5 11 -1 23 -16 35 -20 16 -21 18 -3 12 16 -5 17 -4 5 4
-9 7 -19 7 -26 2 -16 -14 -26 1 -11 18 10 13 9 15 -8 8 -31 -12 -33 -12 -34
-1 -1 6 3 10 8 10 15 0 23 12 9 12 -7 0 -22 4 -32 9 -14 5 -17 4 -12 -4 5 -8
1 -10 -10 -5 -16 6 -16 7 0 18 15 11 15 13 1 19 -9 3 -13 2 -10 -4 3 -6 -1
-10 -10 -10 -12 0 -15 6 -10 23 7 21 6 21 -7 3 -11 -13 -17 -16 -22 -7 -4 6
-12 8 -18 5 -7 -4 -8 -2 -4 5 6 9 12 9 24 -1 12 -9 11 -6 -2 10 -20 23 -32 30
-21 12 3 -5 1 -10 -4 -10 -10 0 -15 14 -12 33 1 5 -3 6 -8 3 -5 -4 -19 4 -31
16 -16 17 -19 18 -15 6 5 -13 2 -18 -10 -18 -9 0 -14 4 -11 9 7 11 -44 8 -64
-3 -12 -7 -13 -6 -2 5 19 21 14 31 -9 18 -17 -9 -20 -8 -14 2 6 9 3 11 -8 6
-9 -3 -19 -1 -23 5 -4 7 -3 8 4 4 7 -4 12 -2 12 3 0 6 -12 11 -26 11 -14 0
-23 4 -20 8 3 5 -1 9 -9 9 -8 0 -12 -4 -9 -9 3 -4 0 -8 -5 -8 -6 0 -11 4 -11
9 0 5 -7 12 -16 15 -8 3 -13 2 -10 -3 3 -5 -1 -12 -10 -15 -9 -3 -12 -2 -9 4
7 12 -36 7 -56 -6 -8 -5 -9 -3 -4 5 5 9 1 12 -11 11 -40 -5 -47 -1 -34 15 9
11 9 15 1 15 -7 0 -10 4 -7 8 7 11 -56 9 -73 -2 -9 -6 -12 -5 -8 1 8 14 -176
12 -185 -1 -5 -8 -8 -7 -8 0 0 7 -16 11 -40 11 -22 -1 -38 -1 -37 -2z m122
-15 c-3 -5 1 -10 9 -10 8 0 18 -5 22 -12 4 -6 3 -9 -2 -6 -5 3 -17 8 -27 11
-15 6 -16 27 -1 27 3 0 2 -4 -1 -10z m65 -2 c0 -11 -28 -10 -35 1 -3 6 4 9 15
8 11 -1 20 -5 20 -9z m44 -4 c10 -26 7 -29 -9 -8 -10 13 -14 15 -15 5 0 -8 -3
-12 -6 -8 -7 7 4 27 16 27 4 0 11 -7 14 -16z m80 8 c3 -5 -1 -9 -9 -9 -8 0
-12 4 -9 9 3 4 7 8 9 8 2 0 6 -4 9 -8z m31 -2 c3 -5 1 -10 -4 -10 -6 0 -11 5
-11 10 0 6 2 10 4 10 3 0 8 -4 11 -10z m-65 -16 c0 -8 -19 -13 -24 -6 -3 5 1
9 9 9 8 0 15 -2 15 -3z m-573 -90 c-8 -8 -48 -13 -43 -6 2 4 14 8 26 9 12 1
20 0 17 -3z m1053 -34 c0 -6 -5 -10 -11 -10 -5 0 -7 5 -3 12 5 8 2 9 -9 5 -17
-6 -31 5 -20 16 8 8 43 -11 43 -23z m-786 -82 c-4 -6 -1 -8 7 -6 8 3 13 11 11
17 -1 7 2 10 8 6 6 -3 8 -10 5 -15 -3 -4 1 -13 9 -19 16 -14 14 -84 -4 -106
-11 -13 -10 -15 2 -10 11 5 15 -1 14 -22 -1 -15 -5 -34 -9 -40 -5 -8 -3 -13 4
-13 7 0 4 -7 -7 -15 -11 -9 -13 -13 -4 -10 11 4 16 -3 16 -25 1 -16 -3 -30 -8
-30 -5 0 -6 5 -2 12 4 7 3 8 -4 4 -6 -4 -9 -13 -6 -21 4 -8 9 -13 14 -10 12 7
3 -44 -11 -61 -10 -12 -9 -13 3 -9 14 6 16 -4 9 -58 -1 -5 -5 -5 -11 -2 -6 3
-7 -1 -4 -9 3 -9 10 -14 14 -11 5 3 6 -4 3 -16 -4 -13 -8 -17 -13 -9 -5 8 -9
7 -13 -5 -4 -9 -15 -15 -24 -13 -12 2 -18 -3 -17 -15 2 -18 1 -18 -18 0 -21
18 -21 18 -8 -7 7 -14 9 -22 5 -18 -4 4 -14 1 -21 -7 -8 -7 -25 -12 -38 -9
-26 4 -44 -10 -26 -21 8 -5 6 -13 -6 -26 -16 -18 -19 -18 -35 -3 -18 16 -22 2
-6 -23 6 -9 3 -11 -10 -6 -16 6 -17 5 -3 -12 14 -17 14 -18 -9 -6 -16 9 -21
10 -16 1 4 -7 -1 -14 -15 -17 -16 -4 -18 -8 -8 -14 10 -7 10 -9 -2 -9 -13 0
-13 -1 0 -10 12 -8 10 -10 -8 -10 -13 0 -20 -4 -17 -10 4 -6 12 -7 18 -4 7 4
8 3 4 -2 -5 -5 -16 -9 -25 -9 -10 0 -18 -9 -20 -23 -2 -12 -8 -20 -13 -17 -5
3 -6 -1 -3 -9 3 -9 11 -13 17 -9 6 3 7 1 3 -6 -5 -8 -12 -9 -20 -2 -8 7 -12 5
-12 -8 0 -13 5 -17 16 -13 13 5 13 3 1 -11 -7 -9 -11 -26 -8 -38 5 -19 4 -20
-12 -5 -15 14 -17 14 -17 -4 0 -10 4 -17 7 -14 4 2 10 0 14 -6 5 -9 -15 -15
-38 -11 -5 1 -6 -3 -2 -9 3 -5 1 -10 -6 -10 -7 0 -9 -3 -6 -6 4 -4 14 -1 23 7
16 13 16 12 5 -9 -6 -12 -9 -28 -4 -35 10 -16 11 -107 1 -101 -5 3 -6 9 -3 14
3 5 0 12 -6 16 -8 4 -9 3 -5 -4 4 -7 2 -12 -4 -12 -7 0 -5 -6 4 -15 8 -8 19
-15 25 -15 5 0 12 -4 15 -9 3 -4 -6 -7 -20 -5 -22 2 -23 0 -12 -13 7 -9 11
-19 9 -22 -3 -3 2 -6 10 -7 9 -1 10 1 1 3 -7 3 -10 8 -7 13 13 21 35 -3 30
-32 -3 -16 -2 -27 3 -24 5 3 9 -1 9 -9 0 -8 -4 -12 -9 -9 -4 3 -8 -2 -8 -11 0
-9 5 -13 11 -10 7 5 9 -4 5 -25 -2 -17 -2 -29 1 -26 4 3 13 0 22 -6 9 -8 8 -3
-4 12 l-20 25 20 -15 c11 -8 22 -16 24 -17 2 -1 -2 -10 -10 -20 -11 -13 -11
-15 -1 -9 9 5 12 3 11 -5 -4 -20 23 -59 41 -59 10 0 7 7 -10 20 -14 11 -21 20
-17 20 5 0 20 -9 33 -19 l25 -19 -23 -8 -23 -7 23 -8 c14 -5 20 -13 16 -20 -4
-8 -3 -9 5 -5 9 6 9 11 0 22 -8 10 -8 14 0 14 6 0 11 -5 11 -11 0 -6 7 -8 16
-5 8 3 12 2 9 -3 -3 -5 -1 -12 4 -16 6 -3 8 -12 4 -20 -3 -8 0 -15 6 -15 6 0
10 -3 10 -7 -3 -20 3 -23 21 -13 16 9 22 8 26 -5 3 -8 11 -12 18 -8 6 4 4 -2
-4 -12 -13 -16 -13 -18 0 -13 8 3 23 -1 32 -10 15 -13 20 -13 35 -1 9 8 14 9
10 3 -4 -7 0 -14 8 -18 8 -3 17 0 21 6 5 7 2 8 -6 3 -9 -5 -11 -4 -6 4 5 8 13
7 28 -4 17 -11 25 -12 37 -3 9 7 5 -1 -9 -16 -14 -16 -20 -26 -13 -23 6 4 13
4 16 0 2 -5 2 -2 1 5 -2 6 1 12 5 12 5 0 18 3 28 6 16 6 16 5 -2 -9 -11 -9
-18 -17 -15 -18 30 -6 47 -4 43 7 -4 10 0 11 20 1 14 -6 23 -16 19 -22 -3 -5
1 -4 10 3 11 9 18 10 23 2 9 -15 27 -1 21 17 -3 8 -2 12 3 8 5 -3 12 1 15 7 4
7 4 3 2 -9 -2 -13 0 -26 5 -29 5 -3 8 -1 7 4 -2 6 2 10 7 10 6 0 9 -4 7 -10
-1 -5 2 -7 8 -3 6 3 8 10 5 15 -6 10 33 25 54 21 10 -2 10 2 -3 14 -24 24 -20
28 11 8 23 -15 26 -15 21 -3 -4 12 1 16 21 15 17 0 25 -6 23 -15 -3 -11 0 -11
12 0 9 7 16 9 16 4 0 -5 5 -2 11 6 8 12 9 10 4 -8 -5 -18 0 -26 24 -40 17 -9
31 -23 31 -30 0 -7 5 -10 10 -7 5 3 10 1 10 -4 0 -6 -5 -11 -12 -11 -6 0 -8
-3 -5 -6 4 -4 13 -2 20 4 16 14 28 6 20 -14 -3 -9 2 -14 16 -14 12 0 21 -5 21
-11 0 -5 4 -7 10 -4 6 4 7 -1 3 -11 -4 -12 -3 -15 5 -10 8 4 10 2 6 -7 -3 -8
0 -18 7 -23 8 -5 10 -3 4 6 -6 9 -4 11 4 6 7 -5 10 -14 7 -21 -3 -8 3 -19 12
-27 11 -9 14 -10 8 0 -4 6 -2 12 3 12 6 0 11 -7 11 -15 0 -8 5 -15 11 -15 5 0
7 6 4 13 -4 6 3 1 15 -12 11 -13 19 -30 16 -37 -3 -7 -1 -16 5 -19 5 -4 6 -11
3 -17 -4 -7 -2 -8 4 -4 7 4 17 4 22 1 15 -9 -8 -35 -25 -29 -17 7 -29 -12 -14
-22 8 -5 9 -3 4 6 -5 9 -4 11 4 6 6 -4 9 -12 5 -17 -3 -5 -9 -7 -14 -4 -5 3
-16 -2 -24 -11 -9 -8 -16 -11 -16 -6 0 6 -7 12 -15 16 -13 5 -14 2 -4 -15 7
-13 7 -19 1 -15 -6 3 -13 2 -17 -4 -3 -5 -13 -10 -21 -10 -8 0 -12 4 -9 10 3
6 2 10 -4 10 -5 0 -13 -9 -16 -21 -4 -12 -12 -18 -21 -15 -9 3 -14 -1 -14 -11
0 -14 -2 -14 -16 3 -8 10 -13 14 -10 7 4 -8 -3 -11 -21 -9 -16 2 -36 -2 -47
-10 -10 -7 -24 -10 -31 -7 -10 3 -12 -2 -8 -19 l6 -23 -22 25 c-20 22 -21 23
-12 3 8 -16 8 -24 -1 -29 -6 -4 -9 -3 -6 2 3 5 -1 15 -9 23 -12 11 -14 11 -11
-2 2 -9 -1 -15 -7 -14 -5 1 -9 4 -8 7 1 3 -7 6 -17 6 -13 0 -16 -4 -10 -11 11
-14 -25 -14 -37 0 -5 4 -2 5 6 0 10 -6 12 -4 6 5 -6 10 -10 10 -20 -3 -9 -12
-15 -13 -23 -5 -8 8 -15 8 -27 -2 -13 -10 -15 -9 -16 6 -1 17 -2 17 -6 2 -4
-14 -8 -16 -24 -8 -15 9 -19 7 -20 -7 -1 -12 -3 -10 -9 7 -4 14 -8 20 -9 14
-1 -13 -51 -25 -51 -13 0 5 -5 9 -11 9 -5 0 -7 -6 -3 -12 4 -7 -4 -3 -18 10
-13 12 -28 22 -34 22 -5 0 -1 -5 9 -11 9 -5 17 -17 17 -26 0 -15 -1 -15 -12
-1 -7 8 -22 18 -32 22 -16 6 -17 4 -6 -11 7 -10 2 -7 -11 7 -13 14 -35 26 -49
27 -14 1 -26 7 -28 13 -2 5 -8 8 -13 4 -5 -3 -9 0 -9 7 0 7 -2 10 -5 7 -8 -8
6 -39 15 -33 5 3 11 1 14 -4 10 -16 -26 -5 -39 12 -9 13 -14 14 -25 4 -10 -10
-12 -9 -8 3 4 11 -1 16 -15 18 -15 1 -18 -1 -9 -7 11 -7 10 -10 -3 -14 -9 -4
-14 -3 -10 2 3 5 -1 16 -9 24 -8 8 -12 18 -8 22 4 5 1 5 -6 1 -10 -6 -10 -11
-1 -22 8 -10 8 -14 0 -14 -6 0 -11 5 -11 11 0 5 -5 7 -11 3 -7 -4 -7 1 1 16 9
16 9 20 1 15 -7 -4 -19 -1 -28 7 -9 7 -14 8 -10 2 3 -6 0 -11 -8 -11 -8 0 -12
4 -9 9 3 4 0 8 -6 8 -6 0 -8 5 -4 13 6 9 5 9 -7 0 -11 -9 -18 -8 -32 1 -9 7
-17 17 -17 21 0 4 6 2 14 -4 11 -9 16 -9 22 0 4 7 3 9 -3 6 -6 -4 -16 0 -23 8
-7 8 -23 15 -36 15 -22 0 -29 10 -25 33 1 5 -3 6 -9 2 -6 -3 -7 -11 -4 -17 5
-7 2 -8 -5 -4 -7 5 -10 14 -8 20 3 7 1 19 -4 27 -7 12 -9 12 -10 -1 -1 -8 -1
-18 0 -22 0 -5 -4 -8 -10 -8 -6 0 -9 8 -6 19 5 19 -23 51 -46 51 -6 0 2 -9 18
-20 38 -25 26 -26 -15 -1 -25 15 -28 20 -15 25 9 3 13 11 10 16 -5 8 -11 7
-21 -1 -8 -6 -17 -9 -21 -5 -3 3 -1 6 6 6 7 0 9 5 6 10 -4 6 -11 8 -16 5 -5
-4 -6 2 -2 11 5 14 3 16 -12 11 -16 -7 -16 -5 -4 10 8 9 9 14 2 10 -6 -4 -18
-1 -26 7 -8 8 -18 12 -22 8 -5 -4 -5 -2 -2 4 4 7 1 14 -7 17 -9 4 -12 14 -9
26 4 15 1 21 -11 21 -19 0 -22 30 -3 30 7 0 5 5 -5 11 -11 6 -15 16 -11 27 4
13 2 13 -10 -3 -8 -11 -19 -17 -23 -12 -4 4 -2 7 4 7 7 0 12 5 12 11 0 7 -9 9
-21 6 -16 -4 -18 -3 -9 8 8 10 7 16 -7 25 -16 10 -16 11 -1 6 10 -3 18 -1 18
4 0 6 -4 10 -10 10 -5 0 -9 3 -9 8 3 16 -1 32 -8 31 -19 -3 -33 2 -33 11 0 5
8 7 17 3 15 -5 14 -3 -2 10 -11 8 -24 13 -29 10 -5 -4 -6 -1 -2 6 4 6 13 9 19
5 7 -3 1 5 -13 17 -17 15 -19 20 -8 16 22 -8 24 8 3 17 -9 3 -12 12 -8 22 5
13 3 15 -7 9 -9 -5 -11 -4 -6 4 5 8 12 9 20 2 8 -7 12 -5 12 8 0 12 -5 17 -15
13 -9 -3 -12 -1 -7 6 3 6 2 14 -4 17 -6 4 -9 1 -8 -6 2 -6 -4 -14 -12 -16 -9
-3 -11 -1 -5 4 15 12 18 53 4 53 -8 0 -8 4 1 15 10 12 10 18 0 30 -14 17 -21
113 -8 121 4 3 3 14 -2 25 -8 14 -7 19 2 20 10 0 10 2 1 6 -7 2 -13 9 -13 14
0 6 5 7 11 3 7 -4 7 1 -1 16 -8 15 -9 25 -1 33 7 7 7 16 -1 31 -10 18 -9 19 3
9 12 -10 15 -8 15 8 0 13 -5 18 -15 14 -9 -3 -12 -3 -8 1 4 4 1 14 -6 22 -6 9
-7 13 -2 10 6 -3 15 0 22 7 10 11 10 14 0 18 -9 3 -9 8 2 20 11 14 11 17 0 17
-9 1 -8 4 4 11 9 6 15 15 11 21 -4 6 2 8 17 4 13 -3 18 -3 11 0 -6 3 -9 11 -5
17 13 21 14 50 1 59 -10 6 -9 8 4 8 21 0 33 36 18 55 -8 10 -8 15 1 21 8 4 9
3 5 -4 -4 -7 -2 -12 3 -12 6 0 11 5 11 10 0 6 5 10 11 10 5 0 7 -5 3 -12 -5
-7 -3 -8 5 -3 9 5 10 10 2 18 -13 13 -15 30 -2 23 12 -8 21 18 16 43 -2 11 1
24 7 27 7 4 8 2 4 -4 -4 -7 -2 -12 4 -12 6 0 8 -5 4 -12 -4 -7 -3 -8 4 -4 6 4
8 14 5 23 -5 12 -3 14 8 8 12 -8 12 -6 0 8 -11 14 -11 17 0 18 8 1 18 1 22 0
4 -1 3 7 -2 18 -8 14 -7 21 2 24 9 4 8 8 -3 17 -13 9 -12 10 5 8 13 -2 19 2
17 11 -2 11 0 12 11 3 19 -16 30 -3 14 16 -10 13 -9 14 2 7 11 -6 13 -4 8 8
-5 14 -2 15 21 6 l26 -10 -19 22 -20 22 24 -13 c13 -7 21 -8 17 -1 -4 5 3 15
14 21 12 6 19 18 16 25 -5 15 17 39 27 28 7 -6 11 12 8 30 -1 4 7 4 16 -2 14
-7 26 -2 53 22 32 28 32 29 5 12 -22 -13 -27 -14 -18 -3 7 8 9 19 5 23 -4 5
-1 5 5 1 7 -4 22 -2 33 4 15 8 19 7 16 -2 -1 -7 -1 -10 1 -5 3 4 9 4 15 1 5
-4 4 4 -3 17 -11 22 -11 23 5 10 9 -8 16 -10 15 -5 -4 21 2 28 11 14 8 -13 10
-12 10 3 0 20 11 22 29 5 11 -11 11 -9 1 12 -13 24 -12 25 7 7 19 -16 20 -16
19 5 -1 13 5 23 12 24 6 1 17 2 23 3 5 0 7 5 4 11 -3 6 1 7 9 4 9 -3 13 -10
10 -15 -3 -5 2 -6 11 -3 10 4 14 13 10 22 -4 12 -1 11 15 -3 20 -19 21 -19 14
1 -7 18 -7 18 16 -1 13 -11 20 -14 16 -7 -4 7 -1 12 8 12 8 0 18 5 22 12 4 7
3 8 -4 4 -18 -11 -14 0 5 15 11 10 14 10 9 2 -4 -8 -2 -13 4 -13 6 0 8 -5 4
-12 -5 -7 -3 -8 5 -4 7 5 10 15 7 23 -4 9 -2 11 6 7 7 -5 9 -2 5 9 -4 11 -2
14 8 10 8 -3 12 -10 9 -15z m427 -2 c1 -6 1 -15 0 -19 -1 -5 4 -5 11 -1 15 10
49 13 44 5 -2 -3 3 -13 12 -21 14 -13 15 -12 8 5 -4 11 -4 16 0 12 4 -4 12 -2
19 3 8 7 12 5 12 -5 0 -8 -4 -12 -9 -9 -4 3 -8 0 -8 -5 0 -15 13 -14 29 2 11
10 13 9 8 -4 -3 -10 1 -16 9 -16 9 0 13 6 9 15 -4 12 -3 13 10 2 8 -7 13 -16
10 -20 -3 -4 9 -7 26 -6 16 1 32 -1 35 -6 3 -5 10 -5 16 -2 7 4 8 2 4 -4 -4
-7 -2 -12 4 -12 6 0 19 -7 27 -16 12 -11 18 -12 23 -4 5 8 9 7 13 -5 4 -9 3
-13 -2 -10 -5 3 -12 2 -15 -3 -8 -13 27 -11 44 2 13 10 13 9 1 -6 -12 -16 -11
-18 3 -19 31 -3 35 -4 48 -18 8 -9 8 -11 1 -7 -6 3 -14 2 -18 -4 -4 -6 6 -10
24 -10 21 0 32 -6 36 -20 3 -11 11 -20 16 -20 6 0 7 5 3 12 -5 7 -3 8 5 3 9
-5 10 -10 2 -18 -8 -8 -6 -16 5 -29 13 -14 21 -15 38 -6 19 10 20 10 7 -5 -11
-14 -11 -17 0 -18 8 -1 18 -1 24 1 5 1 2 -7 -7 -17 -16 -18 -16 -19 0 -21 50
-5 76 -18 67 -33 -4 -5 -1 -9 6 -9 8 0 7 -5 -2 -17 -10 -11 -10 -14 -1 -9 6 4
12 2 12 -3 0 -6 6 -11 14 -11 20 0 29 -17 15 -26 -8 -5 -9 -3 -4 6 5 9 4 11
-4 6 -14 -9 -4 -28 12 -24 7 2 12 1 13 -2 3 -18 27 -50 34 -45 5 3 12 0 16 -6
4 -8 3 -9 -4 -5 -7 4 -12 1 -12 -9 0 -10 -5 -13 -12 -9 -7 4 -8 3 -4 -5 4 -6
12 -9 17 -6 11 7 12 -7 1 -20 -4 -6 -5 -9 -3 -8 2 2 11 -3 20 -10 14 -10 14
-10 3 5 -10 12 -10 18 -1 24 7 4 9 3 6 -3 -4 -6 2 -18 13 -28 21 -19 27 -45
10 -45 -5 0 -7 8 -3 18 6 18 5 17 -15 -9 -9 -13 -9 -16 3 -17 8 -1 21 -3 28
-4 8 -1 14 -7 14 -15 0 -9 -4 -10 -14 -2 -18 16 -16 4 3 -15 9 -10 11 -16 4
-16 -7 0 -6 -6 3 -15 9 -8 13 -24 10 -35 -3 -12 0 -20 6 -20 7 0 9 -5 4 -12
-13 -22 -13 -42 0 -29 21 21 30 5 17 -29 -1 -3 -2 -8 -1 -12 0 -4 -8 -5 -19
-3 -11 2 -20 1 -20 -3 0 -4 -9 -8 -19 -8 -11 0 -17 4 -15 8 3 4 0 8 -5 8 -6 0
-11 -4 -11 -10 0 -5 -5 -10 -11 -10 -5 0 -7 6 -3 13 5 7 0 6 -11 -3 -17 -13
-18 -13 -13 1 4 9 1 16 -8 16 -7 0 -11 -4 -8 -9 3 -4 0 -9 -5 -9 -6 -1 -17 -2
-23 -3 -7 -1 -19 2 -25 7 -9 6 -13 5 -13 -4 0 -8 -6 -5 -15 7 -9 12 -13 13
-10 4 4 -12 -1 -16 -22 -15 -16 0 -34 4 -40 8 -8 5 -13 3 -14 -5 0 -10 -2 -10
-6 -1 -3 10 -10 10 -25 2 -12 -6 -18 -7 -14 -1 3 5 -1 12 -9 16 -8 3 -17 0
-21 -6 -4 -7 -3 -8 4 -4 7 4 12 2 12 -3 0 -12 -27 -10 -47 2 -8 5 -13 3 -13
-5 0 -8 -3 -9 -8 -3 -4 6 -13 10 -19 11 -39 3 -44 5 -38 14 4 6 11 7 17 4 6
-4 8 -2 4 4 -3 6 -15 9 -26 7 -11 -2 -19 -1 -18 3 2 13 -14 42 -21 37 -4 -2
-8 2 -8 10 0 8 4 12 8 9 4 -2 10 0 14 6 3 5 0 10 -8 10 -8 0 -21 8 -28 17 -10
11 -10 14 -1 9 6 -4 12 -3 12 2 0 5 -10 14 -22 21 -13 6 -16 10 -7 7 9 -2 16
2 16 10 0 7 -4 11 -9 8 -5 -4 -12 3 -15 15 -5 20 -14 25 -40 22 -7 -1 -10 5
-7 12 3 10 -6 20 -25 28 -24 11 -30 18 -25 34 4 16 3 17 -5 5 -6 -8 -11 -10
-11 -5 0 6 -7 1 -15 -9 -14 -19 -15 -18 -12 10 4 31 1 33 -45 35 -10 0 -18 4
-18 9 0 4 -13 13 -30 19 -27 9 -42 31 -22 31 5 0 9 7 9 15 0 8 -4 15 -9 15 -5
0 -4 8 1 19 6 10 7 22 3 26 -4 3 -7 31 -7 60 0 43 2 52 12 43 10 -8 12 -7 7 6
-3 9 -11 16 -16 16 -6 0 -5 6 2 15 9 11 9 15 1 15 -8 0 -9 6 -3 18 10 21 10
32 -2 51 -6 10 -3 18 9 28 18 13 18 13 -1 13 -16 0 -17 2 -4 10 12 8 12 10 1
10 -11 0 -11 3 -1 15 9 11 9 15 1 15 -7 0 -10 4 -6 10 3 5 13 7 23 4 9 -3 7 1
-6 8 -12 8 -19 17 -16 21 12 12 26 8 18 -5 -5 -10 -4 -10 6 -1 11 10 11 15 0
28 -11 13 -10 14 4 9 9 -3 17 -11 17 -18z m44 15 c3 -5 2 -12 -3 -15 -5 -3 -9
1 -9 9 0 17 3 19 12 6z m-563 -43 c-7 -7 -12 -8 -12 -2 0 14 12 26 19 19 2 -3
-1 -11 -7 -17z m709 -21 c-10 -9 -11 -8 -5 6 3 10 9 15 12 12 3 -3 0 -11 -7
-18z m-1021 -141 c0 -3 -4 -8 -10 -11 -5 -3 -10 -1 -10 4 0 6 5 11 10 11 6 0
10 -2 10 -4z m1595 -46 c3 -5 1 -10 -4 -10 -6 0 -11 5 -11 10 0 6 2 10 4 10 3
0 8 -4 11 -10z m-275 -22 c0 -6 -6 -5 -15 2 -8 7 -15 14 -15 16 0 2 7 1 15 -2
8 -4 15 -11 15 -16z m-503 -234 c-3 -3 -12 -4 -19 -1 -8 3 -5 6 6 6 11 1 17
-2 13 -5z m-1097 -25 c0 -5 -4 -9 -8 -9 -5 0 -9 7 -9 15 0 8 4 12 9 9 4 -3 8
-9 8 -15z m1167 -14 c0 -8 -4 -12 -9 -9 -5 3 -6 10 -3 15 9 13 12 11 12 -6z
m-1401 -50 c-8 -7 -13 -14 -11 -17 3 -3 -1 -11 -9 -17 -11 -10 -14 -9 -12 1 6
29 18 45 33 45 14 0 14 -1 -1 -12z m1494 -16 c0 -6 -4 -7 -10 -4 -5 3 -10 11
-10 16 0 6 5 7 10 4 6 -3 10 -11 10 -16z m-1316 -29 c-6 -6 -10 -3 -10 10 0
13 4 16 10 10 7 -7 7 -13 0 -20z m1366 -10 c6 -11 7 -20 2 -20 -6 0 -12 9 -15
20 -3 11 -3 20 -1 20 2 0 8 -9 14 -20z m-407 -18 c-6 -15 -5 -16 12 -2 13 10
16 11 11 2 -5 -9 -3 -13 5 -11 8 1 23 1 34 0 17 -1 18 -3 5 -12 -13 -9 -13
-10 0 -6 8 2 24 -3 34 -12 11 -9 16 -10 12 -3 -5 8 1 12 19 12 15 0 24 -4 20
-10 -4 -6 -11 -8 -16 -5 -5 4 -6 -2 -2 -11 4 -11 8 -13 11 -6 5 16 22 15 18 0
-1 -7 -1 -10 1 -5 3 4 9 7 14 7 6 0 7 -4 4 -10 -4 -6 1 -7 11 -3 14 5 16 3 10
-12 -4 -11 -4 -16 0 -13 4 4 16 2 28 -4 11 -7 25 -11 30 -10 5 2 3 -4 -4 -13
-11 -13 -10 -14 6 -8 16 6 17 4 6 -9 -10 -12 -10 -18 2 -27 8 -7 12 -20 9 -29
-3 -11 -2 -13 4 -5 10 14 35 2 39 -19 10 -49 15 -62 31 -73 17 -13 17 -13 -1
-12 -10 1 -21 -4 -23 -10 -3 -7 0 -13 7 -13 6 0 8 6 4 13 -4 7 -2 7 7 -2 12
-12 12 -14 0 -19 -10 -3 -7 -9 10 -19 l24 -14 -23 7 c-22 5 -23 4 -11 -18 12
-22 11 -22 -6 -8 -17 14 -17 14 -7 -7 10 -17 9 -22 -5 -27 -9 -4 -13 -9 -10
-13 9 -8 -12 -45 -22 -39 -4 3 -6 -6 -3 -21 3 -17 1 -24 -6 -19 -7 4 -10 -7
-9 -31 1 -25 -3 -38 -13 -40 -12 -4 -12 -3 -2 5 11 7 11 10 -3 15 -9 4 -13 3
-10 -2 3 -5 1 -12 -5 -16 -5 -3 -10 -11 -10 -16 0 -6 6 -7 13 -3 7 5 6 1 -3
-10 -13 -17 -14 -17 -21 1 -7 16 -8 16 -8 -4 -1 -12 -6 -25 -12 -29 -8 -4 -9
1 -4 17 4 17 3 20 -3 10 -6 -8 -15 -10 -23 -5 -12 6 -12 5 -1 -8 10 -13 9 -15
-13 -13 -17 2 -25 -2 -25 -12 0 -12 3 -13 14 -4 11 9 16 9 22 -1 4 -7 4 -10
-1 -6 -4 4 -14 3 -22 -3 -7 -6 -13 -8 -13 -3 0 5 -5 2 -11 -6 -9 -13 -10 -12
-5 2 3 10 1 20 -5 23 -5 4 -9 3 -8 -2 1 -4 1 -15 0 -23 -1 -13 -2 -13 -11 0
-5 8 -10 10 -10 4 0 -7 -11 -14 -25 -16 -14 -3 -22 -1 -18 5 3 5 -3 7 -13 3
-40 -12 -74 -14 -69 -5 8 12 -2 12 -25 -1 -16 -9 -18 -8 -14 5 5 12 2 14 -17
6 -18 -6 -27 -4 -37 8 -8 9 -10 10 -6 2 5 -9 3 -12 -5 -7 -6 4 -9 16 -6 27 4
11 2 19 -5 19 -6 0 -8 -4 -5 -10 3 -5 0 -10 -8 -10 -8 0 -17 10 -21 22 -4 18
-8 20 -18 10 -21 -21 -32 -13 -12 9 14 15 15 20 4 17 -9 -2 -15 4 -14 13 1 11
-5 15 -17 12 -17 -5 -17 -7 4 -24 12 -10 16 -18 10 -19 -7 0 -13 3 -13 8 0 4
-12 16 -27 26 -16 9 -20 15 -10 12 9 -3 17 -1 17 4 0 9 -14 14 -32 11 -14 -2
-8 11 10 25 16 12 16 12 -3 11 -14 -1 -20 4 -18 16 0 12 -4 16 -13 13 -16 -6
-29 10 -14 19 5 3 10 11 10 16 0 6 -4 7 -10 4 -5 -3 -10 1 -10 10 0 9 4 14 9
11 5 -4 4 5 -2 18 -7 13 -16 22 -21 19 -5 -4 -6 -1 -2 6 4 6 13 8 19 4 7 -3 3
4 -8 17 -11 13 -14 20 -6 15 11 -6 13 -3 9 13 -3 12 -2 22 4 24 12 4 18 58 7
58 -15 0 -10 18 7 24 8 3 12 2 9 -3 -3 -5 0 -13 7 -17 7 -4 10 -4 6 1 -4 4 -3
14 3 21 7 8 6 14 -2 20 -8 5 -9 3 -4 -7 7 -11 6 -12 -7 -2 -8 7 -19 9 -23 5
-5 -4 -5 -2 -2 5 4 6 18 10 32 9 13 -2 22 0 20 4 -3 4 2 13 10 20 19 15 10 31
-13 24 -15 -5 -15 -5 1 6 9 6 22 8 29 4 7 -5 8 -3 4 5 -6 8 -2 11 10 9 15 -2
18 2 16 20 -2 12 2 22 8 22 6 0 8 -5 4 -12 -4 -7 -3 -8 4 -4 7 4 12 16 12 27
0 10 6 18 13 17 6 -2 11 3 9 11 -3 12 0 12 12 2 11 -9 20 -10 35 -1 12 6 21
13 21 16 0 3 -5 2 -12 -2 -7 -4 -8 -3 -4 4 4 6 14 8 23 5 10 -4 14 -2 9 5 -3
6 -1 14 5 18 8 4 9 3 5 -4 -4 -7 -1 -12 9 -12 10 0 13 -5 9 -12 -9 -14 26 10
38 27 5 6 8 4 8 -5 0 -13 2 -13 9 0 6 8 7 18 4 24 -3 5 -1 6 5 2 6 -4 8 -14 5
-24z m-52 -5 c-10 -9 -11 -8 -5 6 3 10 9 15 12 12 3 -3 0 -11 -7 -18z m169 -8
c0 -15 -18 -19 -23 -6 -3 8 1 14 9 14 8 0 14 -4 14 -8z m-1093 -18 c0 -11 -5
-18 -9 -15 -4 3 -5 11 -1 19 7 21 12 19 10 -4z m490 -73 c-3 -8 -6 -5 -6 6 -1
11 2 17 5 13 3 -3 4 -12 1 -19z m208 -58 c-3 -5 -14 -10 -23 -9 -14 0 -13 2 3
9 27 11 27 11 20 0z m575 -12 c0 -6 -6 -5 -15 2 -8 7 -15 14 -15 16 0 2 7 1
15 -2 8 -4 15 -11 15 -16z m930 -33 c-7 -8 -17 -15 -23 -15 -6 0 -2 7 9 15 25
19 30 19 14 0z m-2450 -15 c0 -5 -4 -10 -10 -10 -5 0 -10 5 -10 10 0 6 5 10
10 10 6 0 10 -4 10 -10z m2460 -5 c0 -2 -10 -9 -22 -15 -22 -11 -22 -10 -4 4
21 17 26 19 26 11z m-1765 -64 c3 -5 2 -12 -3 -15 -5 -3 -9 1 -9 9 0 17 3 19
12 6z m190 -1 c-3 -5 -12 -10 -18 -10 -7 0 -6 4 3 10 19 12 23 12 15 0z m1568
-27 c-7 -2 -13 -11 -13 -19 0 -9 4 -13 8 -10 13 8 10 -18 -3 -31 -9 -8 -12 -2
-10 25 3 44 2 42 18 41 10 0 10 -2 0 -6z m7 -83 c0 -5 -8 -10 -17 -10 -15 0
-16 2 -3 10 19 12 20 12 20 0z m-2460 -60 c0 -5 -5 -10 -11 -10 -5 0 -7 5 -4
10 3 6 8 10 11 10 2 0 4 -4 4 -10z m1548 -20 c-7 -10 -14 -17 -17 -15 -4 4 18
35 25 35 2 0 -1 -9 -8 -20z m-1542 -26 c2 -12 -1 -13 -12 -3 -7 6 -11 16 -8
21 7 11 17 3 20 -18z m2451 20 c-3 -3 -12 -4 -19 -1 -8 3 -5 6 6 6 11 1 17 -2
13 -5z m-2247 -28 c0 -3 -4 -8 -10 -11 -5 -3 -10 -1 -10 4 0 6 5 11 10 11 6 0
10 -2 10 -4z m1570 -7 c0 -5 -5 -7 -12 -3 -7 5 -8 3 -3 -6 6 -10 11 -9 22 5 9
14 13 15 13 4 0 -12 2 -12 10 1 5 8 10 10 10 4 0 -7 7 -15 16 -18 13 -5 14 -3
6 6 -8 10 -3 13 24 14 27 0 34 -3 29 -15 -3 -11 0 -9 10 3 11 14 15 16 15 5 0
-12 2 -12 10 1 5 8 10 10 10 4 0 -7 7 -15 16 -18 13 -5 14 -3 6 7 -9 10 -6 13
13 12 13 0 27 -3 31 -7 4 -4 13 -3 21 3 9 9 13 8 13 0 0 -6 5 -11 11 -11 5 0
8 4 5 8 -3 5 1 9 9 9 8 0 12 -4 9 -9 -6 -10 10 -11 20 -1 9 10 66 11 60 1 -8
-12 10 -10 24 4 16 16 16 -4 0 -22 -11 -12 -10 -12 3 -2 20 15 62 24 54 12 -3
-5 0 -12 5 -15 8 -5 7 -12 -3 -23 -8 -10 -13 -27 -12 -39 1 -18 -1 -20 -12
-11 -21 17 -26 3 -6 -17 17 -18 17 -18 -12 -11 -20 4 -25 4 -16 -3 17 -11 24
-41 9 -41 -6 0 -8 -9 -5 -20 3 -11 1 -20 -4 -20 -5 0 -9 5 -9 12 0 6 -3 8 -7
5 -3 -4 2 -17 13 -28 19 -22 19 -22 -5 -9 -15 7 -21 8 -17 1 4 -6 3 -11 -2
-11 -15 0 -23 -28 -10 -36 6 -4 8 -3 5 3 -4 6 0 16 7 22 10 9 16 9 21 1 4 -6
1 -9 -6 -8 -7 2 -13 -2 -14 -9 0 -7 -6 -18 -14 -25 -12 -11 -13 -10 -6 2 6 10
2 9 -12 -3 -13 -11 -20 -28 -18 -44 2 -19 -2 -24 -14 -20 -13 3 -16 -3 -14
-35 1 -21 -3 -38 -8 -38 -6 0 -8 4 -5 9 7 10 -19 23 -28 14 -3 -4 1 -14 9 -23
13 -14 12 -16 -8 -17 -17 -2 -19 0 -7 7 10 7 11 10 3 10 -7 0 -13 6 -13 14 0
8 -9 18 -20 21 -11 3 -20 11 -20 16 0 6 5 7 10 4 11 -7 14 8 3 18 -3 4 -12 -1
-19 -11 -11 -15 -12 -12 -9 18 2 19 1 27 -1 18 -3 -10 -10 -18 -15 -18 -6 0
-8 8 -5 18 5 14 -2 21 -29 32 -20 8 -34 19 -31 25 7 19 -9 36 -27 29 -9 -3
-14 -11 -10 -17 3 -5 1 -7 -5 -3 -6 3 -9 18 -6 31 3 20 0 25 -16 25 -11 0 -20
5 -20 11 0 5 4 7 10 4 5 -3 7 0 4 9 -7 19 -32 28 -40 14 -4 -6 -3 -8 4 -4 6 3
13 2 16 -3 4 -5 -2 -8 -11 -6 -10 1 -16 9 -15 16 10 38 10 49 1 55 -5 3 -8 0
-7 -8 2 -8 -5 -12 -17 -10 -16 2 -17 1 -5 -7 8 -5 18 -7 24 -4 5 3 6 1 2 -5
-5 -9 -13 -9 -27 -2 -11 6 -17 15 -14 20 3 5 -3 13 -12 19 -10 6 -14 11 -9 11
5 0 2 8 -5 18 -13 15 -12 16 4 3 10 -8 17 -9 17 -3 0 6 -5 14 -11 18 -7 4 2
19 23 40 34 35 48 41 48 23z m-753 -121 c-3 -8 -6 -5 -6 6 -1 11 2 17 5 13 3
-3 4 -12 1 -19z m1381 -63 c-3 -3 -9 2 -12 12 -6 14 -5 15 5 6 7 -7 10 -15 7
-18z m-535 -90 c-7 -21 -12 -19 -10 4 0 11 5 18 9 15 4 -3 5 -11 1 -19z
m-1573 11 c0 -3 -4 -8 -10 -11 -5 -3 -10 -1 -10 4 0 6 5 11 10 11 6 0 10 -2
10 -4z m620 0 c0 -2 -8 -10 -17 -17 -16 -13 -17 -12 -4 4 13 16 21 21 21 13z
m995 -46 c3 -5 1 -10 -4 -10 -6 0 -11 5 -11 10 0 6 2 10 4 10 3 0 8 -4 11 -10z
m220 0 c3 -5 -1 -10 -10 -10 -9 0 -13 5 -10 10 3 6 8 10 10 10 2 0 7 -4 10
-10z m-1125 -16 c0 -8 -19 -13 -24 -6 -3 5 1 9 9 9 8 0 15 -2 15 -3z m923 -9
c-3 -9 -8 -14 -10 -11 -3 3 -2 9 2 15 9 16 15 13 8 -4z m-621 -37 c-7 -7 -12
-8 -12 -2 0 14 12 26 19 19 2 -3 -1 -11 -7 -17z m195 7 c0 -8 -4 -12 -9 -9 -5
3 -6 10 -3 15 9 13 12 11 12 -6z m-1147 -9 c0 -3 -4 -8 -10 -11 -5 -3 -10 -1
-10 4 0 6 5 11 10 11 6 0 10 -2 10 -4z m860 -6 c0 -5 -2 -10 -4 -10 -3 0 -8 5
-11 10 -3 6 -1 10 4 10 6 0 11 -4 11 -10z m-1060 -65 c0 -8 -2 -15 -4 -15 -2
0 -6 7 -10 15 -3 8 -1 15 4 15 6 0 10 -7 10 -15z m1540 -95 c0 -5 -2 -10 -4
-10 -3 0 -8 5 -11 10 -3 6 -1 10 4 10 6 0 11 -4 11 -10z m64 -92 c-5 -8 -2 -9
9 -5 10 3 17 2 17 -3 0 -12 -27 -13 -34 -1 -3 4 -3 11 1 15 10 10 15 7 7 -6z
m-1104 -58 c0 -5 -2 -10 -4 -10 -3 0 -8 5 -11 10 -3 6 -1 10 4 10 6 0 11 -4
11 -10z m1401 -17 c13 -16 12 -17 -3 -4 -17 13 -22 21 -14 21 2 0 10 -8 17
-17z m-517 -101 c2 -4 -9 -7 -24 -7 -16 -1 -27 2 -25 5 5 8 44 10 49 2z m-546
-37 c-3 -3 -13 -2 -22 1 -14 5 -15 9 -4 15 13 8 36 -6 26 -16z m486 17 c3 -5
-1 -9 -9 -9 -8 0 -12 4 -9 9 3 4 7 8 9 8 2 0 6 -4 9 -8z m259 -116 c6 -15 -17
-16 -30 -1 -4 4 -2 5 5 1 6 -4 12 -2 12 3 0 15 7 14 13 -3z m-871 -60 c7 4 8
2 4 -5 -9 -13 -26 -5 -25 12 0 9 2 8 6 -1 2 -6 10 -9 15 -6z m576 -20 c-7 -8
-15 -12 -17 -11 -5 6 10 25 20 25 5 0 4 -6 -3 -14z m-306 -30 c7 4 8 2 4 -5
-9 -13 -26 -5 -25 12 0 9 2 8 6 -1 2 -6 10 -9 15 -6z m203 -6 c3 -5 1 -10 -4
-10 -6 0 -11 5 -11 10 0 6 2 10 4 10 3 0 8 -4 11 -10z"/>
<path d="M1050 2236 c0 -2 7 -7 16 -10 8 -3 12 -2 9 4 -6 10 -25 14 -25 6z"/>
<path d="M812 2181 c5 -19 35 -23 35 -5 0 8 -4 14 -9 14 -4 0 -8 -6 -8 -12 0
-9 -4 -8 -11 2 -8 12 -10 12 -7 1z"/>
<path d="M593 2025 c0 -8 4 -12 9 -9 5 3 6 10 3 15 -9 13 -12 11 -12 -6z"/>
<path d="M556 2012 c-3 -5 1 -9 9 -9 8 0 12 4 9 9 -3 4 -7 8 -9 8 -2 0 -6 -4
-9 -8z"/>
<path d="M966 1738 c5 -7 2 -9 -9 -5 -11 4 -14 2 -10 -9 4 -11 9 -12 19 -3 12
10 11 29 -2 29 -3 0 -2 -5 2 -12z"/>
<path d="M876 1682 c-4 -7 -2 -12 4 -12 6 0 8 -5 4 -12 -5 -9 -2 -9 9 1 18 14
23 26 8 17 -5 -4 -11 -1 -13 6 -3 9 -6 9 -12 0z"/>
<path d="M259 1503 c-1 -1 -2 -6 -3 -10 -1 -5 -4 -13 -8 -19 -4 -6 -1 -11 7
-11 8 0 13 3 10 5 -3 3 2 13 10 22 13 15 13 17 0 17 -8 0 -16 -2 -16 -4z"/>
<path d="M236 1422 c-3 -5 1 -9 9 -9 8 0 12 4 9 9 -3 4 -7 8 -9 8 -2 0 -6 -4
-9 -8z"/>
<path d="M678 1273 c9 -4 10 -8 2 -18 -8 -10 -8 -15 0 -20 6 -4 14 -4 17 -1 4
3 0 6 -8 6 -12 0 -12 2 0 9 15 10 7 31 -12 30 -8 0 -8 -2 1 -6z"/>
<path d="M870 840 c0 -5 7 -10 16 -10 8 0 12 5 9 10 -3 6 -10 10 -16 10 -5 0
-9 -4 -9 -10z"/>
<path d="M1093 715 c0 -8 4 -12 9 -9 5 3 6 10 3 15 -9 13 -12 11 -12 -6z"/>
<path d="M427 644 c-3 -4 5 -16 19 -26 14 -11 28 -18 31 -14 4 3 1 6 -6 6 -7
0 -9 5 -6 10 4 6 1 9 -7 8 -7 -2 -12 3 -10 10 2 13 -10 16 -21 6z"/>
<path d="M1641 580 c14 -31 19 -36 19 -24 0 6 -7 19 -16 30 -14 18 -14 18 -3
-6z"/>
<path d="M515 560 c3 -5 8 -10 11 -10 2 0 4 5 4 10 0 6 -5 10 -11 10 -5 0 -7
-4 -4 -10z"/>
<path d="M1740 480 c-9 -6 -10 -10 -3 -10 6 0 15 5 18 10 8 12 4 12 -15 0z"/>
<path d="M1730 359 c0 -5 5 -7 10 -4 6 3 10 8 10 11 0 2 -4 4 -10 4 -5 0 -10
-5 -10 -11z"/>
<path d="M1670 2186 c0 -4 7 -14 15 -22 8 -9 15 -11 15 -6 0 5 -7 15 -15 22
-8 7 -15 9 -15 6z"/>
<path d="M1710 2151 c0 -6 4 -13 10 -16 6 -3 7 1 4 9 -7 18 -14 21 -14 7z"/>
<path d="M2033 1900 c-1 -11 2 -20 7 -20 4 0 7 7 6 15 -3 23 -12 26 -13 5z"/>
<path d="M2108 1804 c-10 -9 3 -42 18 -48 12 -4 11 -1 -1 18 -8 12 -12 26 -8
29 3 4 4 7 1 7 -2 0 -7 -3 -10 -6z"/>
<path d="M2169 1663 c-13 -16 -12 -17 4 -4 9 7 17 15 17 17 0 8 -8 3 -21 -13z"/>
<path d="M2213 1545 c0 -8 4 -12 9 -9 5 3 6 10 3 15 -9 13 -12 11 -12 -6z"/>
<path d="M1742 1490 c15 -24 25 -26 25 -5 0 8 -4 12 -9 9 -4 -3 -8 0 -8 5 0 6
-5 11 -10 11 -6 0 -5 -8 2 -20z"/>
<path d="M2245 1450 c-3 -5 -12 -7 -19 -4 -8 3 -16 1 -20 -4 -8 -13 32 -8 46
6 7 7 9 12 6 12 -4 0 -9 -4 -13 -10z"/>
<path d="M1120 1546 c0 -2 7 -7 16 -10 8 -3 12 -2 9 4 -6 10 -25 14 -25 6z"/>
<path d="M1460 1486 c0 -2 7 -6 15 -10 8 -3 15 -1 15 4 0 6 -7 10 -15 10 -8 0
-15 -2 -15 -4z"/>
<path d="M1559 1357 c6 -8 7 -18 3 -22 -4 -5 -1 -5 6 -1 10 6 10 11 1 22 -6 8
-14 14 -16 14 -3 0 0 -6 6 -13z"/>
<path d="M916 1253 c-6 -14 -5 -15 5 -6 7 7 10 15 7 18 -3 3 -9 -2 -12 -12z"/>
<path d="M1135 940 c-3 -5 -1 -10 4 -10 6 0 11 5 11 10 0 6 -2 10 -4 10 -3 0
-8 -4 -11 -10z"/>
<path d="M1750 1035 c-8 -9 -8 -15 -2 -15 12 0 26 19 19 26 -2 2 -10 -2 -17
-11z"/>
<path d="M2250 1039 c0 -5 -5 -7 -12 -3 -7 4 -8 3 -4 -5 6 -9 11 -9 22 0 17
14 18 19 4 19 -5 0 -10 -5 -10 -11z"/>
<path d="M1756 968 c3 -5 10 -6 15 -3 13 9 11 12 -6 12 -8 0 -12 -4 -9 -9z"/>
<path d="M1875 850 c-3 -6 1 -7 9 -4 18 7 21 14 7 14 -6 0 -13 -4 -16 -10z"/>
<path d="M1477 2473 c-10 -9 -9 -23 1 -23 5 0 9 7 9 15 0 17 -1 18 -10 8z"/>
<path d="M1505 2460 c-3 -6 1 -7 9 -4 18 7 21 14 7 14 -6 0 -13 -4 -16 -10z"/>
<path d="M850 2414 c0 -8 5 -12 10 -9 6 4 8 11 5 16 -9 14 -15 11 -15 -7z"/>
<path d="M816 2412 c-3 -5 1 -9 9 -9 8 0 12 4 9 9 -3 4 -7 8 -9 8 -2 0 -6 -4
-9 -8z"/>
<path d="M406 2171 c-4 -5 -2 -12 3 -15 5 -4 12 -2 15 3 4 5 2 12 -3 15 -5 4
-12 2 -15 -3z"/>
<path d="M226 1978 c3 -4 9 -8 15 -8 5 0 9 4 9 8 0 5 -7 9 -15 9 -8 0 -12 -4
-9 -9z"/>
<path d="M2297 1915 c-4 -8 -3 -16 1 -19 4 -3 9 4 9 15 2 23 -3 25 -10 4z"/>
<path d="M2375 1800 c3 -5 8 -10 11 -10 2 0 4 5 4 10 0 6 -5 10 -11 10 -5 0
-7 -4 -4 -10z"/>
<path d="M2395 1700 c-3 -5 -1 -10 4 -10 6 0 11 5 11 10 0 6 -2 10 -4 10 -3 0
-8 -4 -11 -10z"/>
<path d="M2456 1498 c3 -5 10 -6 15 -3 13 9 11 12 -6 12 -8 0 -12 -4 -9 -9z"/>
<path d="M2455 1470 c3 -5 8 -10 11 -10 2 0 4 5 4 10 0 6 -5 10 -11 10 -5 0
-7 -4 -4 -10z"/>
<path d="M2462 1064 c10 -10 20 -16 22 -13 3 3 -5 11 -17 18 -21 13 -21 12 -5
-5z"/>
<path d="M30 1016 c7 -7 13 -7 20 0 6 6 3 10 -10 10 -13 0 -16 -4 -10 -10z"/>
<path d="M57 884 c-10 -11 5 -34 22 -33 10 0 11 2 3 6 -6 2 -10 9 -7 13 6 10
-10 22 -18 14z"/>
<path d="M2409 868 c0 -2 -2 -11 -4 -21 -3 -15 -1 -16 11 -6 7 6 11 15 8 20
-5 9 -13 12 -15 7z"/>
<path d="M2057 328 c-11 -9 -14 -18 -8 -27 6 -9 11 -10 15 -2 4 6 1 11 -6 11
-7 1 -2 7 12 15 14 8 20 14 14 15 -5 0 -18 -6 -27 -12z"/>
<path d="M501 256 c-10 -12 -8 -13 8 -9 12 3 18 9 15 14 -7 12 -10 11 -23 -5z"/>
<path d="M573 204 c0 -7 4 -11 8 -8 4 2 15 -3 23 -12 15 -14 16 -14 13 8 -4
25 -44 36 -44 12z"/>
<path d="M1894 204 c-14 -12 -15 -14 -3 -11 9 3 23 0 30 -6 11 -10 11 -9 1 5
-10 13 -10 17 0 21 7 3 8 6 2 6 -5 1 -19 -6 -30 -15z"/>
<path d="M751 114 c0 -11 3 -14 6 -6 3 7 2 16 -1 19 -3 4 -6 -2 -5 -13z"/>
<path d="M1675 100 c-3 -5 -1 -10 4 -10 6 0 11 5 11 10 0 6 -2 10 -4 10 -3 0
-8 -4 -11 -10z"/>
<path d="M1035 40 c-6 -9 -4 -11 5 -5 10 6 12 4 7 -9 -4 -9 -3 -15 2 -11 5 3
12 -1 14 -7 3 -7 6 -8 6 -2 1 5 -5 18 -12 29 -11 14 -16 15 -22 5z"/>
<path d="M1415 20 c3 -5 11 -10 16 -10 6 0 7 5 4 10 -3 6 -11 10 -16 10 -6 0
-7 -4 -4 -10z"/>
</g>
</svg>
